<svg width="145" height="142" viewBox="0 0 145 142" fill="none" xmlns="http://www.w3.org/2000/svg">
<g id="Group 4">
<g id="Group 6">
<g id="Path" filter="url(#filter0_d_58_2)">
<path fill-rule="evenodd" clip-rule="evenodd" d="M50 27.8778V54.8126L70.9841 66.8307L94.6777 52.8182V25.8834" fill="#FF9271"/>
</g>
<path id="Path_2" d="M70.9841 39.8959V66.8307L94.6777 52.8182V25.8834L70.9841 39.8959V39.8959Z" fill="#DF5C34"/>
<path id="Path_3" d="M50 27.8778L74.3469 14L94.6777 25.8834L70.9841 39.8959L50 27.8778V27.8778Z" fill="#F47B56"/>
<path id="Shape" fill-rule="evenodd" clip-rule="evenodd" d="M78.6451 21.747C76.4745 20.5584 74.0099 20.0155 71.5415 20.1822C68.9516 20.2278 66.4213 20.9675 64.2137 22.3241C63.0559 22.9833 62.1348 23.9908 61.5811 25.2036C61.1195 26.2538 61.1195 27.4497 61.5811 28.4999C62.1401 29.6911 63.0708 30.6679 64.2329 31.2832C65.6728 32.0971 67.2602 32.616 68.9025 32.8095C70.7092 33.0596 72.5438 33.0271 74.3407 32.7133C75.9895 32.4624 77.5735 31.8917 79.0038 31.033C79.5003 30.7295 79.9621 30.3726 80.381 29.9685C80.6987 29.6671 80.9822 29.3316 81.2265 28.968C81.3956 28.6983 81.5332 28.4099 81.6364 28.1087C81.7081 27.9208 81.7659 27.7279 81.8094 27.5315C81.8132 27.4589 81.8132 27.3861 81.8094 27.3135L79.433 27.1788L79.3433 27.5828C79.2143 27.9898 78.9954 28.3624 78.7027 28.673C78.2653 29.1809 77.7482 29.6141 77.1718 29.9557C75.5059 30.9435 73.5991 31.4496 71.6632 31.4178C69.7187 31.5001 67.7896 31.0405 66.0905 30.0903C64.534 29.1733 63.7333 28.0317 63.7333 26.7491C63.7205 25.4409 64.4699 24.3143 65.9816 23.3695C67.6427 22.3564 69.5454 21.8093 71.4903 21.7854C73.3254 21.6646 75.1568 22.0718 76.7683 22.959C78.2843 23.8568 78.6003 24.5815 77.7163 25.133C77.0684 25.4819 76.2889 25.4819 75.641 25.133L71.471 22.6768L69.6711 23.7991L70.3117 24.1839H69.9594C69.6144 24.2031 69.2728 24.2612 68.9409 24.3571C68.5247 24.4652 68.1273 24.6361 67.7623 24.8637C66.9866 25.232 66.4892 26.0115 66.4812 26.871C66.5197 27.6662 67.0321 28.3588 68.0313 28.9488C69.088 29.5561 70.2915 29.8601 71.5095 29.8274C72.6867 29.8505 73.8469 29.544 74.8595 28.9424C75.2939 28.6963 75.6562 28.3402 75.91 27.9099C76.0625 27.6785 76.151 27.4107 76.1662 27.1339C76.152 27.017 76.1219 26.9027 76.0765 26.794L76.5633 26.8325C77.0093 26.8456 77.455 26.8003 77.8893 26.6978C78.4177 26.591 78.923 26.3913 79.3817 26.1078C80.3489 25.5242 80.7589 24.8316 80.6628 24.0364C80.5667 23.2412 79.8877 22.478 78.6451 21.747ZM73.0724 25.8128C73.488 25.9933 73.7877 26.3678 73.8731 26.8133H73.8987C73.9053 27.2232 73.669 27.5982 73.2966 27.7688C72.8046 28.0597 72.2408 28.2064 71.6696 28.1921C71.0753 28.2058 70.4885 28.0573 69.9722 27.7624C69.5616 27.5823 69.275 27.2004 69.2163 26.7555C69.226 26.3283 69.4732 25.9423 69.8569 25.7551C70.3242 25.4751 70.8627 25.3369 71.407 25.3575C71.9927 25.3583 72.5676 25.5154 73.0724 25.8128Z" fill="#3E2928"/>
</g>
</g>
<defs>
<filter id="filter0_d_58_2" x="0" y="0.883369" width="144.678" height="140.947" filterUnits="userSpaceOnUse" color-interpolation-filters="sRGB">
<feFlood flood-opacity="0" result="BackgroundImageFix"/>
<feColorMatrix in="SourceAlpha" type="matrix" values="0 0 0 0 0 0 0 0 0 0 0 0 0 0 0 0 0 0 127 0" result="hardAlpha"/>
<feOffset dy="25"/>
<feGaussianBlur stdDeviation="25"/>
<feColorMatrix type="matrix" values="0 0 0 0 0.209139 0 0 0 0 0.0691446 0 0 0 0 0.478091 0 0 0 0.497159 0"/>
<feBlend mode="normal" in2="BackgroundImageFix" result="effect1_dropShadow_58_2"/>
<feBlend mode="normal" in="SourceGraphic" in2="effect1_dropShadow_58_2" result="shape"/>
</filter>
</defs>
</svg>
