<svg width="237" height="180" viewBox="0 0 237 180" fill="none" xmlns="http://www.w3.org/2000/svg">
<path d="M114.923 177.689L4.60524 112.512C1.09307 110.538 -1.91736 107.303 1.50475 105.181L112.215 41.3927C113.875 40.3637 116.396 39.6885 118.088 40.6724L233.874 107.863C237.386 109.901 238.017 115.58 234.517 117.637L129.461 177.586C124.974 180.188 119.447 180.227 114.923 177.689Z" fill="#5B36A0"/>
<path d="M114.923 174.681L4.60524 109.504C1.09307 107.529 -1.91736 104.295 1.50475 102.172L112.215 38.3843C113.875 37.3554 116.396 36.6801 118.088 37.664L233.874 104.854C237.386 106.893 238.017 112.571 234.517 114.629L129.461 174.578C124.974 177.18 119.447 177.219 114.923 174.681Z" fill="#6862E6"/>
<g style="mix-blend-mode:multiply" opacity="0.25">
<path d="M124.019 88.6869L102.251 101.105C102.251 101.105 135.784 121.562 142.641 124.443L155.178 106.436" fill="url(#paint0_linear_58_3)"/>
</g>
<g style="mix-blend-mode:multiply" opacity="0.25">
<path d="M116.499 148.263L94.7252 135.87L72.951 148.289C72.951 148.289 84.2916 155.208 95.1305 161.562C102.013 156.694 108.903 151.774 116.499 148.263Z" fill="url(#paint1_linear_58_3)"/>
</g>
<g style="mix-blend-mode:multiply" opacity="0.46">
<path d="M69.5868 71.735L55.7761 79.6128C55.7761 79.6128 56.9468 86.8348 63.8039 89.7158L81.8858 78.1402" fill="url(#paint2_linear_58_3)"/>
</g>
<ellipse cx="76.3475" cy="73.7479" rx="8.33015" ry="5.86499" fill="#68E1FD"/>
<ellipse cx="76.341" cy="70.288" rx="6.23957" ry="2.55307" fill="#974C26"/>
<path fill-rule="evenodd" clip-rule="evenodd" d="M75.9872 62.5774C76.0773 63.7285 76.1159 64.8796 76.1159 66.0308C76.1095 67.4713 76.0387 68.9118 75.8843 70.3459C75.389 69.6578 74.9001 68.9375 74.3855 68.1272C73.723 67.0919 73.1055 66.0308 72.5394 64.9439C72.0131 63.9775 71.5636 62.9712 71.195 61.9343C70.7851 60.8081 70.4562 59.654 70.2108 58.4809C70.1465 58.1979 70.0886 57.8635 70.0371 57.5548V57.4455V57.1754C69.9857 56.5709 69.9342 55.9278 69.9342 55.2847C69.9056 53.0977 70.3283 50.9282 71.1757 48.9117C73.4279 52.1772 74.9464 55.8915 75.627 59.7992C75.6699 60.0307 75.7106 60.2644 75.7492 60.5002C75.7492 60.4552 75.8393 60.9246 75.8393 61.0983L75.9036 61.6835C75.9336 61.9793 75.9615 62.2773 75.9872 62.5774ZM72.8418 53.085C72.8418 53.0851 72.8418 53.0852 72.8417 53.0854H72.8353C72.8375 53.0852 72.8396 53.0851 72.8418 53.085ZM72.8418 53.085C73.0001 53.0761 73.1588 53.0936 73.3113 53.1368C73.1569 52.9653 73.0004 52.7981 72.8417 52.6352C72.8747 52.7833 72.8748 52.9369 72.8418 53.085Z" fill="#999A1C"/>
<path fill-rule="evenodd" clip-rule="evenodd" d="M80.014 63.9407C79.4673 64.989 78.9012 65.9472 78.2579 66.9182C77.4796 68.1337 76.6176 69.3041 75.7621 70.4424C75.7042 69.5999 75.7042 68.7253 75.7042 67.7671C75.7042 66.5388 75.7557 65.3169 75.8715 64.0951C75.9509 62.997 76.1165 61.9068 76.3668 60.8346C76.6295 59.6645 76.9756 58.5148 77.4024 57.3941C77.5182 57.0983 77.6404 56.8089 77.7626 56.5195L77.7626 56.5195L77.7948 56.4166L77.9235 56.1786C78.2129 55.6191 78.5217 55.0661 78.8562 54.5323C80.0179 52.6743 81.5508 51.0761 83.359 49.8378C83.4895 53.8057 82.7588 57.7548 81.2169 61.4134C81.1269 61.6235 81.0347 61.8378 80.9403 62.0565L80.6894 62.6095L80.4257 63.1433C80.2928 63.4091 80.1555 63.6749 80.014 63.9407ZM82.7221 53.8635C82.6788 54.0087 82.6042 54.1426 82.5034 54.2558C82.6289 54.322 82.7438 54.4065 82.8444 54.5066C82.81 54.3008 82.7693 54.0864 82.7221 53.8635Z" fill="#999A1C"/>
<path fill-rule="evenodd" clip-rule="evenodd" d="M80.1427 68.7446C79.5037 69.1176 78.8604 69.4649 78.2129 69.7864C77.4024 70.1916 76.5726 70.5517 75.7428 70.899C75.9872 70.4295 76.2638 69.9472 76.5726 69.4327C76.9778 68.7896 77.4024 68.1465 77.8591 67.5034C78.256 66.936 78.6969 66.4006 79.1778 65.9021C79.6982 65.3549 80.2571 64.8455 80.8502 64.378L81.3262 64.0243L81.3777 63.9793L81.5257 63.8893C81.8666 63.6835 82.2075 63.4841 82.5613 63.3041C83.7849 62.6753 85.125 62.3053 86.498 62.2172C85.288 64.3981 83.6202 66.2914 81.6093 67.7671L81.2491 68.0308L80.9403 68.2494L80.6251 68.4488L80.1427 68.7446ZM84.8384 64.1787C84.7684 64.2433 84.6849 64.2917 84.594 64.3201V64.3266C84.6369 64.4073 84.6672 64.494 84.684 64.5838C84.7398 64.4509 84.7912 64.3159 84.8384 64.1787Z" fill="#999A1C"/>
<path fill-rule="evenodd" clip-rule="evenodd" d="M75.9872 62.5774C76.0773 63.7285 76.1159 64.8796 76.1159 66.0308C76.1095 67.4713 76.0387 68.9118 75.8843 70.3459C75.389 69.6578 74.9001 68.9375 74.3855 68.1272C73.723 67.0919 73.1055 66.0308 72.5394 64.9439C72.0131 63.9775 71.5636 62.9712 71.195 61.9343C70.7851 60.8081 70.4562 59.654 70.2108 58.4809C70.1465 58.1979 70.0886 57.8635 70.0371 57.5548V57.4455V57.1754C69.9857 56.5709 69.9342 55.9278 69.9342 55.2847C69.9056 53.0977 70.3283 50.9282 71.1757 48.9117C73.4279 52.1772 74.9464 55.8915 75.627 59.7992C75.6699 60.0307 75.7106 60.2644 75.7492 60.5002C75.7492 60.4552 75.8393 60.9246 75.8393 61.0983L75.9036 61.6835C75.9336 61.9793 75.9615 62.2773 75.9872 62.5774ZM72.8418 53.085C72.8418 53.0851 72.8418 53.0852 72.8417 53.0854H72.8353C72.8375 53.0852 72.8396 53.0851 72.8418 53.085ZM72.8418 53.085C73.0001 53.0761 73.1588 53.0936 73.3113 53.1368C73.1569 52.9653 73.0004 52.7981 72.8417 52.6352C72.8747 52.7833 72.8748 52.9369 72.8418 53.085Z" fill="#999A1C"/>
<path fill-rule="evenodd" clip-rule="evenodd" d="M80.014 63.9407C79.4673 64.989 78.9012 65.9472 78.2579 66.9182C77.4796 68.1337 76.6176 69.3041 75.7621 70.4424C75.7042 69.5999 75.7042 68.7253 75.7042 67.7671C75.7042 66.5388 75.7557 65.3169 75.8715 64.0951C75.9509 62.997 76.1165 61.9068 76.3668 60.8346C76.6295 59.6645 76.9756 58.5148 77.4024 57.3941C77.5182 57.0983 77.6404 56.8089 77.7626 56.5195L77.7626 56.5195L77.7948 56.4166L77.9235 56.1786C78.2129 55.6191 78.5217 55.0661 78.8562 54.5323C80.0179 52.6743 81.5508 51.0761 83.359 49.8378C83.4895 53.8057 82.7588 57.7548 81.2169 61.4134C81.1269 61.6235 81.0347 61.8378 80.9403 62.0565L80.6894 62.6095L80.4257 63.1433C80.2928 63.4091 80.1555 63.6749 80.014 63.9407ZM82.7221 53.8635C82.6788 54.0087 82.6042 54.1426 82.5034 54.2558C82.6289 54.322 82.7438 54.4065 82.8444 54.5066C82.81 54.3008 82.7693 54.0864 82.7221 53.8635Z" fill="#999A1C"/>
<path fill-rule="evenodd" clip-rule="evenodd" d="M80.1427 68.7446C79.5037 69.1176 78.8604 69.4649 78.2129 69.7864C77.4024 70.1916 76.5726 70.5517 75.7428 70.899C75.9872 70.4295 76.2638 69.9472 76.5726 69.4327C76.9778 68.7896 77.4024 68.1465 77.8591 67.5034C78.256 66.936 78.6969 66.4006 79.1778 65.9021C79.6982 65.3549 80.2571 64.8455 80.8502 64.378L81.3262 64.0243L81.3777 63.9793L81.5257 63.8893C81.8666 63.6835 82.2075 63.4841 82.5613 63.3041C83.7849 62.6753 85.125 62.3053 86.498 62.2172C85.288 64.3981 83.6202 66.2914 81.6093 67.7671L81.2491 68.0308L80.9403 68.2494L80.6251 68.4488L80.1427 68.7446ZM84.8384 64.1787C84.7684 64.2433 84.6849 64.2917 84.594 64.3201V64.3266C84.6369 64.4073 84.6672 64.494 84.684 64.5838C84.7398 64.4509 84.7912 64.3159 84.8384 64.1787Z" fill="#999A1C"/>
<path d="M132.664 83.838L120.616 89.6258C119.691 90.0703 119.088 90.9894 119.047 92.0147C119.007 93.04 119.536 94.0037 120.423 94.5197L148.977 111.176C150.26 111.925 151.905 111.531 152.708 110.282L159.649 99.4908" fill="#A1482D"/>
<path d="M198.193 55.9214L102.123 0.576998C100.781 -0.194156 99.1306 -0.192207 97.7911 0.582114C96.4516 1.35643 95.6264 2.78575 95.6257 4.33265V61.9086C95.6257 63.1952 96.3123 64.3842 97.4268 65.0275L199.846 124.134C200.565 124.551 201.452 124.551 202.171 124.136C202.891 123.72 203.334 122.952 203.332 122.121V64.7832C203.329 61.1224 201.369 57.7426 198.193 55.9214Z" fill="#F47B56"/>
<path d="M102.129 4.93073L195.298 58.5195C197.323 59.6851 198.571 61.8428 198.572 64.1787V107.336C198.571 108.177 198.122 108.953 197.395 109.374C196.667 109.796 195.771 109.798 195.041 109.382L100.026 54.8989C99.3018 54.4841 98.8552 53.7138 98.855 52.8796V6.82784C98.855 6.04803 99.2705 5.32727 99.9454 4.93624C100.62 4.54522 101.452 4.54311 102.129 4.93073Z" fill="white"/>
<ellipse cx="140.893" cy="84.0603" rx="2.02623" ry="2.31515" transform="rotate(-10.9 140.893 84.0603)" fill="#AB643C"/>
<path opacity="0.32" d="M127.171 63.4841L170.468 89.4907L191.857 77.0598L153.641 54.8217" fill="url(#paint3_linear_58_3)"/>
<path d="M180.677 58.3072L133.867 29.7733C133.357 29.4783 132.727 29.4835 132.221 29.7869C131.716 30.0903 131.415 30.6441 131.436 31.2331V47.4905C131.432 48.0887 131.742 48.6452 132.253 48.9567L179.056 76.8861C179.557 77.1705 180.171 77.1669 180.668 76.8766C181.165 76.5863 181.47 76.0534 181.468 75.4778L181.713 60.3201C181.749 59.513 181.355 58.7469 180.677 58.3072Z" fill="#E2AC00"/>
<path d="M169.478 66.6739C171.157 69.0211 174.109 69.6771 176.065 68.1465C178.02 66.616 178.245 63.4713 176.567 61.1304C174.888 58.7896 171.935 58.1272 169.98 59.6577C168.024 61.1883 167.799 64.3266 169.478 66.6739Z" fill="white"/>
<path d="M164.885 55.4069L145.793 43.9149C145.453 43.7558 145.048 43.8815 144.858 44.2048C144.668 44.5282 144.756 44.9431 145.06 45.1625L164.152 56.6545C164.491 56.8136 164.897 56.6879 165.087 56.3646C165.277 56.0412 165.189 55.6263 164.885 55.4069V55.4069Z" fill="#F2F2F2"/>
<path d="M164.1 60.0758L137.785 44.2364C137.452 44.1202 137.084 44.2593 136.911 44.5665C136.738 44.8737 136.811 45.2604 137.084 45.484L163.367 61.3298C163.707 61.4888 164.112 61.3632 164.302 61.0398C164.492 60.7164 164.405 60.3015 164.1 60.0822V60.0758Z" fill="#F2F2F2"/>
<path d="M171.337 61.4584L124.553 32.9309C124.043 32.6358 123.412 32.641 122.907 32.9445C122.401 33.2479 122.101 33.8017 122.121 34.3907V50.6416C122.114 51.2408 122.421 51.8 122.932 52.1143L169.735 80.0437C170.241 80.3345 170.865 80.3296 171.366 80.031C171.867 79.7324 172.169 79.1865 172.154 78.6032L172.398 63.4455C172.42 62.6423 172.017 61.8871 171.337 61.4584V61.4584Z" fill="#F47B56"/>
<path d="M160.138 69.825C161.817 72.1723 164.769 72.8282 166.725 71.2977C168.68 69.7671 168.905 66.6224 167.227 64.2816C165.548 61.9407 162.595 61.2783 160.64 62.8089C158.684 64.3394 158.459 67.4777 160.138 69.825Z" fill="white"/>
<path d="M155.545 58.5581L136.44 47.066C136.1 46.907 135.695 47.0326 135.505 47.356C135.315 47.6794 135.403 48.0943 135.707 48.3136L154.799 59.8056C155.138 59.9647 155.544 59.8391 155.734 59.5157C155.924 59.1923 155.836 58.7774 155.532 58.5581H155.545Z" fill="#F2F2F2"/>
<path d="M154.754 63.259L128.445 47.394C128.105 47.2349 127.7 47.3606 127.51 47.684C127.32 48.0073 127.407 48.4222 127.711 48.6416L154.027 64.4809C154.367 64.64 154.772 64.5143 154.962 64.191C155.152 63.8676 155.064 63.4527 154.76 63.2333L154.754 63.259Z" fill="#F2F2F2"/>
<path d="M159.597 63.3748L112.801 34.8473C112.29 34.5523 111.66 34.5575 111.155 34.8609C110.649 35.1643 110.348 35.7181 110.369 36.3071V52.558C110.365 53.1562 110.675 53.7127 111.186 54.0243L157.989 81.9537C158.495 82.2445 159.119 82.2396 159.62 81.941C160.122 81.6423 160.423 81.0965 160.408 80.5132L160.652 65.3555C160.673 64.5558 160.273 63.8039 159.597 63.3748V63.3748Z" fill="#68E1FD"/>
<path d="M159.597 63.3748L112.801 34.8473C112.29 34.5523 111.66 34.5575 111.155 34.8609C110.649 35.1643 110.348 35.7181 110.369 36.3071V52.558C110.365 53.1562 110.675 53.7127 111.186 54.0243L157.989 81.9537C158.495 82.2445 159.119 82.2396 159.62 81.941C160.122 81.6423 160.423 81.0965 160.408 80.5132L160.652 65.3555C160.673 64.5558 160.273 63.8039 159.597 63.3748V63.3748Z" fill="#68E1FD"/>
<path d="M148.392 71.7414C150.071 74.0887 153.023 74.7447 154.979 73.2141C156.934 71.6835 157.159 68.5388 155.481 66.198C153.802 63.8571 150.849 63.1947 148.894 64.7253C146.938 66.2559 146.732 69.3941 148.392 71.7414Z" fill="white"/>
<path d="M143.799 60.4745L124.701 48.9824C124.361 48.8234 123.956 48.949 123.766 49.2724C123.576 49.5958 123.663 50.0107 123.968 50.23L143.059 61.7221C143.399 61.8811 143.804 61.7555 143.994 61.4321C144.184 61.1087 144.097 60.6938 143.793 60.4745H143.799Z" fill="#F2F2F2"/>
<path d="M143.008 65.1497L116.692 49.3104C116.353 49.1514 115.948 49.277 115.757 49.6004C115.567 49.9238 115.655 50.3386 115.959 50.558L142.275 66.3973C142.614 66.5564 143.019 66.4308 143.21 66.1074C143.4 65.784 143.312 65.3691 143.008 65.1497V65.1497Z" fill="#F2F2F2"/>
<path d="M98.1796 61.7799C95.1556 64.3822 92.8686 67.7331 91.5476 71.497C89.219 77.9279 95.0405 88.436 95.0405 88.436L104.098 81.2656" fill="#FF8F6F"/>
<path d="M97.2019 146.803L94.7446 145.446L95.3879 141.935C95.3879 141.935 99.048 142.282 99.3696 143.581" fill="#003B94"/>
<path d="M98.1023 146.752C98.6555 146.411 99.2344 146.108 99.8069 145.806C101.228 145.028 103.28 144.224 104.155 142.764C104.522 142.16 104.476 141.391 104.039 140.835C102.753 139.279 99.9355 141.838 98.4946 140.115C98.2116 139.774 98.0765 134.366 98.0765 134.366L92.596 135.845C92.596 135.845 91.6697 146.713 91.7726 147.382C91.8756 148.051 93.7603 148.668 93.7603 148.668C94.3216 148.549 94.8574 148.331 95.3427 148.025C95.9152 147.607 95.3942 142.507 96.1275 143.221C96.8608 143.935 97.1824 146.726 97.1824 146.726C97.4868 146.772 97.7957 146.781 98.1023 146.752Z" fill="#F47B56"/>
<path d="M107.667 152.057L105.21 150.719L105.853 147.208C105.853 147.208 109.514 147.555 109.835 148.854" fill="#003B94"/>
<path d="M108.594 152.006C109.147 151.665 109.726 151.362 110.298 151.06C111.72 150.282 113.772 149.478 114.647 148.018C115.014 147.414 114.968 146.645 114.531 146.089C113.244 144.533 110.427 147.092 108.986 145.369C108.703 145.028 108.568 139.62 108.568 139.62L103.087 141.099C103.087 141.099 102.155 152.006 102.258 152.649C102.361 153.292 104.245 153.935 104.245 153.935C104.807 153.816 105.342 153.598 105.828 153.292C106.4 152.874 105.879 147.774 106.613 148.488C107.346 149.202 107.667 151.993 107.667 151.993C107.975 152.035 108.286 152.039 108.594 152.006Z" fill="#F47B56"/>
<path d="M89.8109 116.726L88.1963 138.314C88.1963 138.314 90.7693 141.864 99.3954 139.89V139.89L99.479 125.337" fill="#3E2928"/>
<path d="M99.7748 121.002C99.5883 122.861 99.7748 143.362 99.7748 143.362C99.7748 143.362 102.161 147.825 112.55 143.362L112.402 125.941" fill="#3E2928"/>
<path d="M89.0066 123.857C89.7142 124.346 89.9586 121.832 90.6984 122.263C93.3896 123.825 96.246 125.085 99.215 126.018H99.2794C99.4223 125.949 99.5872 125.94 99.7364 125.995C99.8856 126.05 100.006 126.162 100.071 126.308C101.905 126.855 103.772 127.284 105.66 127.594C108.086 127.98 110.092 126.185 112.582 126.063C112.582 116.533 112.627 89.4071 108.568 83.6193L96.5584 79.5807C96.5005 80.571 90.7305 87.2592 90.872 95.4136C91.0328 104.603 89.8364 113.272 89.6305 116.147C89.5984 116.636 89.0323 123.337 89.0066 123.857Z" fill="#3E2928"/>
<path d="M109.675 72.661L108.568 83.5936C108.568 83.5936 99.6076 83.9537 95.748 81.2913V72.0179" fill="#FF8F6F"/>
<path d="M121.066 65.4649L120.153 66.7125C120.64 65.6977 121.07 64.6564 121.44 63.5935C121.697 62.8668 120.533 62.5774 120.275 63.3041L120.14 63.6771C120.252 63.2912 120.357 62.9032 120.455 62.5131C120.535 62.1916 120.339 61.8663 120.018 61.7864C119.696 61.7065 119.371 61.9023 119.291 62.2237C119.039 63.2328 118.736 64.2287 118.384 65.2076C118.581 64.3385 118.722 63.4579 118.809 62.571C118.886 61.8057 117.683 61.8378 117.612 62.571C117.512 63.5806 117.332 64.5806 117.072 65.5613C117.072 65.2183 117.04 64.8754 116.975 64.5324C116.958 64.3594 116.866 64.2024 116.725 64.1015C116.692 63.9665 116.654 63.8378 116.609 63.7028C116.515 63.4251 116.235 63.2549 115.945 63.2993C115.655 63.3436 115.438 63.5897 115.432 63.8829L115.354 68.3845C115.137 68.8513 114.853 69.2845 114.512 69.6707C115.091 70.071 115.649 70.5003 116.184 70.9569C116.662 71.3605 117.117 71.7899 117.548 72.243C117.934 71.7629 118.305 71.2741 118.661 70.7768C118.705 70.7393 118.744 70.6961 118.776 70.6482C119.849 69.0619 120.955 67.5013 122.096 65.9665C122.572 65.4391 121.523 64.8539 121.066 65.4649Z" fill="#FFB5A9"/>
<path d="M103.988 62.6931C103.988 62.6931 108.221 63.8314 109.938 66.5517C111.014 68.4345 111.961 70.3875 112.775 72.3974L115.901 67.542C115.901 67.542 119.696 68.706 121.202 70.571C121.202 70.571 116.699 80.4103 112.775 81.2527C108.851 82.0952 104.683 75.4778 104.683 75.4778C104.683 75.4778 103.821 78.2431 103.988 75.2913" fill="#FF8F6F"/>
<path d="M106.677 73.2077C105.447 72.2069 104.518 70.8845 103.994 69.3877C103.486 67.6578 104.123 66.1401 104.715 64.5324C105.356 62.9388 105.729 61.2506 105.821 59.5356C105.873 57.8507 105.68 56.1658 105.564 54.4873C105.547 54.4153 105.547 54.3406 105.564 54.2686C104.998 52.3715 103.84 50.7638 101.557 50.5709C95.645 50.0693 95.3105 56.6159 95.3556 59.2783C95.4006 61.9407 95.6836 63.7414 93.7217 64.8539C91.7598 65.9665 90.3446 68.8861 92.2165 71.2462C94.0883 73.6064 92.4094 72.7446 91.1615 74.8411C89.9136 76.9376 90.2352 79.555 92.7954 80.5003C95.3556 81.4457 107.256 79.6707 108.349 78.571C108.737 78.128 108.938 77.5515 108.909 76.9633C108.642 75.4834 107.849 74.1496 106.677 73.2077V73.2077Z" fill="#007F68"/>
<path fill-rule="evenodd" clip-rule="evenodd" d="M114.164 24.1013C114.073 22.3481 113.494 20.6553 112.492 19.2138C111.6 17.7731 110.283 16.645 108.722 15.9854C107.923 15.6289 107.019 15.583 106.188 15.8568C105.395 16.1376 104.74 16.7135 104.361 17.4646C103.905 18.3598 103.7 19.3624 103.769 20.3649C103.825 21.5574 104.104 22.7289 104.593 23.8183C105.081 24.959 105.754 26.0108 106.587 26.9309C107.289 27.7489 108.169 28.3956 109.16 28.8215C109.509 28.9607 109.874 29.0536 110.247 29.0981C110.531 29.1362 110.819 29.1362 111.102 29.0981C111.324 29.0674 111.54 29.0068 111.746 28.918C111.876 28.8667 112.003 28.8065 112.125 28.7379L112.254 28.6479L111.476 27.201L111.218 27.3424C110.957 27.4631 110.669 27.5162 110.382 27.4968C109.941 27.5014 109.503 27.4161 109.095 27.246C107.925 26.7094 106.961 25.8064 106.349 24.6736C105.58 23.5267 105.136 22.1936 105.062 20.8151C104.938 19.7189 105.319 18.6258 106.098 17.844C106.836 17.1924 107.896 17.0572 108.774 17.5031C109.956 17.9941 110.953 18.8446 111.623 19.934C112.37 21.0048 112.8 22.2639 112.865 23.5675C112.912 24.8837 112.625 25.4196 112.003 25.1752C111.781 25.0793 111.596 24.9148 111.476 24.7058C111.333 24.4894 111.253 24.238 111.244 23.9791L111.115 20.3649L109.829 19.8633V20.4356L109.713 20.2298C109.581 20.0416 109.425 19.8708 109.25 19.7218C109.044 19.5353 108.807 19.3872 108.549 19.2845C108.028 19.0286 107.403 19.1263 106.986 19.5289C106.511 20.0522 106.292 20.7583 106.387 21.4582C106.415 22.3225 106.672 23.164 107.134 23.8955C107.516 24.5687 108.108 25.0991 108.819 25.4067C109.117 25.5416 109.449 25.582 109.771 25.5225C109.963 25.4942 110.145 25.4167 110.298 25.2974C110.359 25.2313 110.411 25.1578 110.453 25.0788L110.607 25.381C110.756 25.6409 110.942 25.8772 111.16 26.082C111.403 26.3339 111.697 26.5312 112.022 26.6608C112.555 26.9442 113.212 26.8303 113.618 26.3842C114.081 25.7193 114.276 24.9039 114.164 24.1013ZM109.919 22.8344C109.961 23.1741 109.866 23.5166 109.655 23.7861C109.458 23.982 109.157 24.0287 108.909 23.9019C108.564 23.7526 108.277 23.4953 108.092 23.1688C107.866 22.8094 107.74 22.3967 107.725 21.9726C107.68 21.6355 107.784 21.2955 108.008 21.0401C108.225 20.8445 108.54 20.8036 108.8 20.9372C109.13 21.0808 109.404 21.3295 109.578 21.6446C109.791 22.0056 109.909 22.4152 109.919 22.8344Z" fill="#F47B56"/>
<path fill-rule="evenodd" clip-rule="evenodd" d="M190.113 93.7351C190.024 91.9817 189.445 90.2884 188.441 88.8476C187.581 87.3909 186.291 86.2362 184.749 85.5421C183.946 85.1882 183.042 85.1424 182.208 85.4135C181.415 85.6981 180.761 86.2758 180.381 87.0277C179.924 87.9205 179.719 88.9211 179.789 89.9216C179.844 91.1142 180.124 92.2857 180.613 93.375C181.1 94.5177 181.774 95.5717 182.607 96.494C183.31 97.3096 184.19 97.9541 185.18 98.3782C185.526 98.5192 185.889 98.6143 186.26 98.6612C186.546 98.6991 186.836 98.6991 187.122 98.6612C187.343 98.6268 187.559 98.5663 187.766 98.4811C187.896 98.4298 188.023 98.3696 188.145 98.3011L188.274 98.211L187.495 96.7641L187.238 96.9055C186.976 97.0237 186.689 97.0767 186.402 97.0599C185.96 97.0597 185.523 96.9723 185.115 96.8027C183.946 96.292 182.972 95.4196 182.337 94.3139C181.567 93.1676 181.122 91.8341 181.05 90.4553C180.913 89.3568 181.285 88.2559 182.06 87.465C182.8 86.8172 183.859 86.6848 184.736 87.1306C185.914 87.6217 186.908 88.4696 187.579 89.555C188.325 90.6284 188.755 91.8894 188.821 93.1949C188.859 94.5133 188.595 95.047 187.952 94.8026C187.73 94.7068 187.546 94.5422 187.425 94.3332C187.284 94.1157 187.205 93.865 187.193 93.6065L187.064 89.9923L185.778 89.4971V90.0695L185.656 89.8637C185.523 89.6736 185.368 89.5008 185.193 89.3492C184.987 89.1624 184.75 89.0142 184.491 88.9119C183.973 88.6571 183.35 88.7548 182.935 89.1563C182.457 89.6778 182.238 90.3854 182.337 91.0856C182.364 91.9529 182.624 92.797 183.089 93.5293C183.471 94.2049 184.063 94.7377 184.774 95.047C185.07 95.1821 185.401 95.2204 185.72 95.1563C185.913 95.1296 186.095 95.0519 186.248 94.9313C186.307 94.8641 186.358 94.7908 186.402 94.7126L186.556 95.0149C186.706 95.2739 186.892 95.51 187.109 95.7158C187.354 95.9662 187.647 96.1632 187.971 96.2946C188.504 96.5757 189.16 96.4621 189.567 96.0181C190.03 95.3532 190.226 94.5378 190.113 93.7351ZM185.874 92.4682C185.915 92.8088 185.818 93.1514 185.604 93.42C185.405 93.6137 185.104 93.6578 184.858 93.5293C184.513 93.3776 184.226 93.1181 184.041 92.7898C183.816 92.4326 183.689 92.0221 183.674 91.6C183.63 91.2618 183.735 90.921 183.964 90.6676C184.182 90.4741 184.497 90.4357 184.755 90.5711C185.084 90.7142 185.356 90.9632 185.527 91.2785C185.743 91.6385 185.863 92.0484 185.874 92.4682Z" fill="#F47B56"/>
<g style="mix-blend-mode:multiply" opacity="0.25">
<path d="M60.2532 116.269L38.479 103.883L16.7113 116.295C16.7113 116.295 28.8238 123.857 39.6626 130.211C46.5455 125.349 52.6628 119.787 60.2532 116.269Z" fill="url(#paint4_linear_58_3)"/>
</g>
<defs>
<linearGradient id="paint0_linear_58_3" x1="123.809" y1="92.6229" x2="118.285" y2="109.022" gradientUnits="userSpaceOnUse">
<stop stop-color="#78B46A"/>
<stop offset="0.03" stop-color="#7F3500"/>
<stop offset="1" stop-color="white"/>
</linearGradient>
<linearGradient id="paint1_linear_58_3" x1="87.5671" y1="126.183" x2="78.2744" y2="155.453" gradientUnits="userSpaceOnUse">
<stop stop-color="#78B46A"/>
<stop offset="0.03" stop-color="#7F3500"/>
<stop offset="1" stop-color="white"/>
</linearGradient>
<linearGradient id="paint2_linear_58_3" x1="64.5518" y1="64.7751" x2="55.9545" y2="84.651" gradientUnits="userSpaceOnUse">
<stop stop-color="#78B46A"/>
<stop offset="0.03" stop-color="#7F3500"/>
<stop offset="1" stop-color="white"/>
</linearGradient>
<linearGradient id="paint3_linear_58_3" x1="185.54" y1="82.5495" x2="182.182" y2="74.026" gradientUnits="userSpaceOnUse">
<stop stop-color="white" stop-opacity="0.01"/>
<stop offset="0.99" stop-color="#DC841E"/>
</linearGradient>
<linearGradient id="paint4_linear_58_3" x1="31.8413" y1="94.0301" x2="22.0644" y2="123.346" gradientUnits="userSpaceOnUse">
<stop stop-color="#78B46A"/>
<stop offset="0.03" stop-color="#7F3500"/>
<stop offset="1" stop-color="white"/>
</linearGradient>
</defs>
</svg>
