<svg width="472" height="359" viewBox="0 0 472 359" fill="none" xmlns="http://www.w3.org/2000/svg">
<g id="mention_isometric 3">
<g id="mention_isometric">
<path id="Path" d="M229.018 355.203L9.31273 225.211C2.31802 221.273 -3.67743 214.822 3.13792 210.589L223.625 83.3669C226.93 81.3148 231.952 79.968 235.321 81.9304L465.916 215.937C472.91 220.003 474.166 231.329 467.197 235.433L257.971 354.998C249.035 360.187 238.026 360.265 229.018 355.203Z" fill="#5B36A0"/>
<path id="Path Copy" d="M229.018 349.203L9.31273 219.211C2.31802 215.273 -3.67743 208.822 3.13792 204.589L223.625 77.3669C226.93 75.3148 231.952 73.968 235.321 75.9304L465.916 209.937C472.91 214.003 474.166 225.329 467.197 229.433L257.971 348.998C249.035 354.187 238.026 354.265 229.018 349.203Z" fill="#6862E6"/>
<g id="Path_2" style="mix-blend-mode:multiply" opacity="0.25">
<path d="M247.133 177.693L203.781 202.46C203.781 202.46 270.564 243.26 284.22 249.006L309.188 213.093" fill="url(#paint0_linear_2_78)"/>
</g>
<g id="Path_3" style="mix-blend-mode:multiply" opacity="0.25">
<path d="M232.157 296.513L188.792 271.798L145.428 296.565C145.428 296.565 168.013 310.366 189.599 323.038C203.307 313.328 217.027 303.516 232.157 296.513Z" fill="url(#paint1_linear_2_78)"/>
</g>
<g id="Path_4" style="mix-blend-mode:multiply" opacity="0.46">
<path d="M138.728 143.883L111.223 159.595C111.223 159.595 113.554 173.999 127.211 179.745L163.222 156.658" fill="url(#paint2_linear_2_78)"/>
</g>
<ellipse id="Oval" cx="152.192" cy="147.898" rx="16.59" ry="11.6974" fill="#68E1FD"/>
<ellipse id="Oval_2" cx="152.179" cy="140.997" rx="12.4265" ry="5.09196" fill="#974C26"/>
<path id="Shape" fill-rule="evenodd" clip-rule="evenodd" d="M151.474 125.619C151.654 127.915 151.731 130.21 151.731 132.506C151.718 135.379 151.577 138.252 151.269 141.113C150.283 139.74 149.309 138.304 148.284 136.688C146.965 134.623 145.735 132.506 144.608 130.339C143.56 128.411 142.664 126.404 141.93 124.336C141.114 122.09 140.459 119.788 139.97 117.448C139.842 116.884 139.727 116.217 139.624 115.601V115.383V114.845C139.522 113.639 139.419 112.356 139.419 111.074C139.362 106.712 140.204 102.385 141.892 98.3632C146.377 104.876 149.401 112.284 150.757 120.078C150.842 120.54 150.923 121.006 151 121.476C151 121.386 151.18 122.322 151.18 122.669L151.308 123.836C151.368 124.426 151.423 125.02 151.474 125.619ZM145.21 106.687C145.21 106.687 145.21 106.687 145.21 106.687H145.197C145.201 106.687 145.206 106.687 145.21 106.687ZM145.21 106.687C145.525 106.669 145.841 106.704 146.145 106.79C145.838 106.448 145.526 106.114 145.21 105.79C145.276 106.085 145.276 106.391 145.21 106.687Z" fill="#999A1C"/>
<path id="Shape_2" fill-rule="evenodd" clip-rule="evenodd" d="M159.494 128.338C158.405 130.428 157.278 132.34 155.997 134.276C154.446 136.7 152.73 139.035 151.026 141.305C150.911 139.625 150.911 137.88 150.911 135.969C150.911 133.52 151.013 131.083 151.244 128.646C151.402 126.456 151.732 124.281 152.23 122.143C152.753 119.809 153.443 117.516 154.293 115.281C154.523 114.691 154.767 114.114 155.01 113.537L155.01 113.537L155.074 113.331L155.33 112.857C155.907 111.741 156.522 110.638 157.188 109.573C159.502 105.868 162.554 102.68 166.156 100.21C166.416 108.124 164.96 116 161.89 123.297C161.71 123.716 161.527 124.144 161.339 124.58L160.839 125.683L160.314 126.747C160.049 127.278 159.776 127.808 159.494 128.338ZM164.887 108.239C164.801 108.529 164.652 108.796 164.452 109.022C164.702 109.154 164.93 109.322 165.131 109.522C165.062 109.112 164.981 108.684 164.887 108.239Z" fill="#999A1C"/>
<path id="Shape_3" fill-rule="evenodd" clip-rule="evenodd" d="M159.75 137.919C158.478 138.663 157.196 139.355 155.907 139.997C154.293 140.805 152.64 141.523 150.987 142.216C151.474 141.279 152.025 140.317 152.64 139.291C153.447 138.009 154.293 136.726 155.202 135.443C155.993 134.312 156.871 133.244 157.828 132.25C158.865 131.158 159.978 130.142 161.159 129.21L162.107 128.505L162.21 128.415L162.504 128.235C163.183 127.825 163.862 127.427 164.567 127.068C167.004 125.814 169.673 125.076 172.407 124.9C169.997 129.25 166.676 133.026 162.671 135.969L161.954 136.495L161.339 136.931L160.711 137.329L159.75 137.919ZM169.102 128.812C168.963 128.941 168.796 129.038 168.615 129.095V129.107C168.701 129.268 168.761 129.441 168.795 129.62C168.906 129.355 169.008 129.086 169.102 128.812Z" fill="#999A1C"/>
<path id="Shape_4" fill-rule="evenodd" clip-rule="evenodd" d="M151.474 125.619C151.654 127.915 151.731 130.21 151.731 132.506C151.718 135.379 151.577 138.252 151.269 141.113C150.283 139.74 149.309 138.304 148.284 136.688C146.965 134.623 145.735 132.506 144.608 130.339C143.56 128.411 142.664 126.404 141.93 124.336C141.114 122.09 140.459 119.788 139.97 117.448C139.842 116.884 139.727 116.217 139.624 115.601V115.383V114.845C139.522 113.639 139.419 112.356 139.419 111.074C139.362 106.712 140.204 102.385 141.892 98.3632C146.377 104.876 149.401 112.284 150.757 120.078C150.842 120.54 150.923 121.006 151 121.476C151 121.386 151.18 122.322 151.18 122.669L151.308 123.836C151.368 124.426 151.423 125.02 151.474 125.619ZM145.21 106.687C145.21 106.687 145.21 106.687 145.21 106.687H145.197C145.201 106.687 145.206 106.687 145.21 106.687ZM145.21 106.687C145.525 106.669 145.841 106.704 146.145 106.79C145.838 106.448 145.526 106.114 145.21 105.79C145.276 106.085 145.276 106.391 145.21 106.687Z" fill="#999A1C"/>
<path id="Shape_5" fill-rule="evenodd" clip-rule="evenodd" d="M159.494 128.338C158.405 130.428 157.278 132.34 155.997 134.276C154.446 136.7 152.73 139.035 151.026 141.305C150.911 139.625 150.911 137.88 150.911 135.969C150.911 133.52 151.013 131.083 151.244 128.646C151.402 126.456 151.732 124.281 152.23 122.143C152.753 119.809 153.443 117.516 154.293 115.281C154.523 114.691 154.767 114.114 155.01 113.537L155.01 113.537L155.074 113.331L155.33 112.857C155.907 111.741 156.522 110.638 157.188 109.573C159.502 105.868 162.554 102.68 166.156 100.21C166.416 108.124 164.96 116 161.89 123.297C161.71 123.716 161.527 124.144 161.339 124.58L160.839 125.683L160.314 126.747C160.049 127.278 159.776 127.808 159.494 128.338ZM164.887 108.239C164.801 108.529 164.652 108.796 164.452 109.022C164.702 109.154 164.93 109.322 165.131 109.522C165.062 109.112 164.981 108.684 164.887 108.239Z" fill="#999A1C"/>
<path id="Shape_6" fill-rule="evenodd" clip-rule="evenodd" d="M159.75 137.919C158.478 138.663 157.196 139.355 155.907 139.997C154.293 140.805 152.64 141.523 150.987 142.216C151.474 141.279 152.025 140.317 152.64 139.291C153.447 138.009 154.293 136.726 155.202 135.443C155.993 134.312 156.871 133.244 157.828 132.25C158.865 131.158 159.978 130.142 161.159 129.21L162.107 128.505L162.21 128.415L162.504 128.235C163.183 127.825 163.862 127.427 164.567 127.068C167.004 125.814 169.673 125.076 172.407 124.9C169.997 129.25 166.676 133.026 162.671 135.969L161.954 136.495L161.339 136.931L160.711 137.329L159.75 137.919ZM169.102 128.812C168.963 128.941 168.796 129.038 168.615 129.095V129.107C168.701 129.268 168.761 129.441 168.795 129.62C168.906 129.355 169.008 129.086 169.102 128.812Z" fill="#999A1C"/>
<path id="Path_5" d="M264.35 168.022L240.356 179.565C238.513 180.452 237.311 182.285 237.231 184.33C237.15 186.375 238.205 188.297 239.971 189.326L296.839 222.545C299.392 224.04 302.669 223.254 304.269 220.763L318.092 199.24" fill="#A1482D"/>
<path id="Path_6" d="M394.854 112.344L203.525 1.96238C200.853 0.424351 197.566 0.428239 194.898 1.97258C192.23 3.51692 190.587 6.36761 190.586 9.45281V124.285C190.586 126.851 191.953 129.222 194.173 130.505L398.146 248.39C399.578 249.221 401.345 249.222 402.778 248.393C404.211 247.565 405.093 246.032 405.09 244.375V130.018C405.084 122.717 401.18 115.976 394.854 112.344Z" fill="#F47B56"/>
<path id="Path_7" d="M203.537 10.6457L389.089 117.525C393.122 119.85 395.608 124.154 395.61 128.812V214.888C395.607 216.564 394.714 218.112 393.265 218.953C391.816 219.793 390.031 219.798 388.577 218.967L199.348 110.304C197.907 109.477 197.017 107.941 197.017 106.277V14.4294C197.017 12.8741 197.844 11.4365 199.188 10.6567C200.532 9.87678 202.189 9.87258 203.537 10.6457Z" fill="white"/>
<ellipse id="Oval_3" cx="280.738" cy="168.465" rx="4.03558" ry="4.61719" transform="rotate(-10.9 280.738 168.465)" fill="#AB643C"/>
<path id="Path_8" opacity="0.32" d="M253.41 127.427L339.639 179.296L382.235 154.503L306.126 110.15" fill="url(#paint3_linear_2_78)"/>
<path id="Path_9" d="M359.97 117.102L266.746 60.1928C265.73 59.6043 264.474 59.6147 263.468 60.2199C262.461 60.825 261.862 61.9296 261.903 63.1043V95.5287C261.896 96.7218 262.513 97.8317 263.53 98.453L356.742 154.157C357.739 154.724 358.962 154.717 359.952 154.138C360.942 153.559 361.549 152.496 361.546 151.348L362.033 121.117C362.106 119.507 361.321 117.979 359.97 117.102Z" fill="#E2AC00"/>
<path id="Path_10" d="M337.667 133.789C341.01 138.47 346.89 139.779 350.785 136.726C354.679 133.673 355.128 127.402 351.784 122.733C348.441 118.064 342.56 116.743 338.666 119.796C334.771 122.848 334.323 129.107 337.667 133.789Z" fill="white"/>
<path id="Path_11" d="M328.52 111.318L290.497 88.3973C289.821 88.0801 289.014 88.3307 288.635 88.9757C288.257 89.6206 288.431 90.4481 289.037 90.8856L327.059 113.806C327.736 114.123 328.543 113.873 328.921 113.228C329.3 112.583 329.126 111.755 328.52 111.318V111.318Z" fill="#F2F2F2"/>
<path id="Path_12" d="M326.957 120.629L274.548 89.0386C273.885 88.8067 273.152 89.0842 272.808 89.6969C272.464 90.3096 272.609 91.0809 273.151 91.5269L325.496 123.13C326.173 123.448 326.98 123.197 327.358 122.552C327.737 121.907 327.563 121.08 326.957 120.642V120.629Z" fill="#F2F2F2"/>
<path id="Path_13" d="M341.369 123.387L248.196 66.4904C247.18 65.9019 245.924 65.9123 244.918 66.5175C243.911 67.1226 243.312 68.2272 243.353 69.4019V101.813C243.338 103.009 243.951 104.124 244.968 104.751L338.179 160.454C339.187 161.034 340.429 161.025 341.427 160.429C342.426 159.833 343.025 158.745 342.996 157.581L343.483 127.35C343.526 125.748 342.723 124.242 341.369 123.387V123.387Z" fill="#F47B56"/>
<path id="Path_14" d="M319.065 140.074C322.409 144.755 328.289 146.063 332.184 143.011C336.078 139.958 336.526 133.686 333.183 129.018C329.839 124.349 323.959 123.028 320.065 126.08C316.17 129.133 315.722 135.392 319.065 140.074Z" fill="white"/>
<path id="Path_15" d="M309.918 117.602L271.87 94.6821C271.194 94.3649 270.387 94.6155 270.008 95.2604C269.63 95.9054 269.804 96.7329 270.41 97.1704L308.432 120.091C309.109 120.408 309.916 120.157 310.294 119.512C310.673 118.867 310.499 118.04 309.893 117.602H309.918Z" fill="#F2F2F2"/>
<path id="Path_16" d="M308.343 126.978L255.946 95.3363C255.27 95.0191 254.463 95.2696 254.085 95.9146C253.706 96.5596 253.88 97.3871 254.486 97.8246L306.895 129.415C307.572 129.732 308.378 129.482 308.757 128.837C309.136 128.192 308.962 127.364 308.356 126.927L308.343 126.978Z" fill="#F2F2F2"/>
<path id="Path_17" d="M317.989 127.209L224.791 70.3126C223.774 69.7241 222.519 69.7345 221.512 70.3397C220.506 70.9448 219.907 72.0494 219.948 73.2241V105.636C219.94 106.829 220.558 107.939 221.575 108.56L314.787 164.264C315.794 164.844 317.036 164.834 318.035 164.238C319.033 163.643 319.633 162.554 319.603 161.391L320.09 131.16C320.132 129.565 319.334 128.065 317.989 127.209V127.209Z" fill="#68E1FD"/>
<path id="Path_18" d="M317.989 127.209L224.791 70.3126C223.774 69.7241 222.519 69.7345 221.512 70.3397C220.506 70.9448 219.907 72.0494 219.948 73.2241V105.636C219.94 106.829 220.558 107.939 221.575 108.56L314.787 164.264C315.794 164.844 317.036 164.834 318.035 164.238C319.033 163.643 319.633 162.554 319.603 161.391L320.09 131.16C320.132 129.565 319.334 128.065 317.989 127.209V127.209Z" fill="#68E1FD"/>
<path id="Path_19" d="M295.673 143.896C299.016 148.577 304.897 149.886 308.791 146.833C312.686 143.78 313.134 137.508 309.79 132.84C306.447 128.171 300.566 126.85 296.672 129.903C292.777 132.955 292.368 139.214 295.673 143.896Z" fill="white"/>
<path id="Path_20" d="M286.526 121.425L248.491 98.5043C247.814 98.1871 247.007 98.4377 246.629 99.0827C246.25 99.7276 246.424 100.555 247.03 100.993L285.053 123.913C285.729 124.23 286.536 123.979 286.915 123.335C287.293 122.69 287.119 121.862 286.513 121.425H286.526Z" fill="#F2F2F2"/>
<path id="Path_21" d="M284.95 130.749L232.541 99.1585C231.864 98.8412 231.058 99.0918 230.679 99.7368C230.301 100.382 230.475 101.209 231.081 101.647L283.49 133.237C284.166 133.555 284.973 133.304 285.352 132.659C285.73 132.014 285.556 131.187 284.95 130.749V130.749Z" fill="#F2F2F2"/>
<path id="Path_22" d="M195.672 124.028C189.649 129.218 185.094 135.901 182.464 143.408C177.826 156.235 189.42 177.192 189.42 177.192L207.458 162.891" fill="#FF8F6F"/>
<path id="Path_23" d="M193.724 293.602L188.831 290.896L190.112 283.893C190.112 283.893 197.401 284.585 198.042 287.176" fill="#003B94"/>
<path id="Path_24" d="M195.518 293.499C196.62 292.82 197.773 292.217 198.913 291.614C201.744 290.062 205.831 288.459 207.573 285.547C208.304 284.342 208.212 282.809 207.342 281.699C204.78 278.595 199.169 283.7 196.299 280.263C195.736 279.583 195.467 268.796 195.467 268.796L184.552 271.746C184.552 271.746 182.707 293.422 182.912 294.756C183.117 296.09 186.871 297.321 186.871 297.321C187.988 297.084 189.055 296.649 190.022 296.039C191.162 295.205 190.125 285.034 191.585 286.458C193.045 287.881 193.686 293.448 193.686 293.448C194.292 293.54 194.907 293.557 195.518 293.499Z" fill="#F47B56"/>
<path id="Path_25" d="M214.568 304.081L209.674 301.413L210.955 294.41C210.955 294.41 218.244 295.103 218.885 297.693" fill="#003B94"/>
<path id="Path_26" d="M216.412 303.978C217.514 303.298 218.667 302.696 219.807 302.093C222.638 300.541 226.725 298.938 228.467 296.026C229.198 294.821 229.106 293.288 228.237 292.178C225.674 289.074 220.063 294.179 217.194 290.742C216.63 290.062 216.361 279.275 216.361 279.275L205.446 282.225C205.446 282.225 203.589 303.978 203.794 305.261C203.999 306.543 207.752 307.826 207.752 307.826C208.87 307.588 209.937 307.154 210.904 306.543C212.044 305.71 211.006 295.539 212.467 296.962C213.927 298.386 214.568 303.953 214.568 303.953C215.179 304.037 215.799 304.046 216.412 303.978Z" fill="#F47B56"/>
<path id="Path_27" d="M179.005 233.614L175.789 276.671C175.789 276.671 180.914 283.751 198.093 279.814V279.814L198.259 250.788" fill="#3E2928"/>
<path id="Path_28" d="M198.849 242.144C198.477 245.85 198.849 286.74 198.849 286.74C198.849 286.74 203.602 295.641 224.291 286.74L223.996 251.994" fill="#3E2928"/>
<path id="Path_29" d="M177.403 247.838C178.813 248.813 179.299 243.798 180.773 244.658C186.132 247.775 191.821 250.287 197.734 252.148H197.862C198.147 252.01 198.475 251.993 198.773 252.102C199.07 252.21 199.31 252.436 199.438 252.725C203.091 253.816 206.809 254.673 210.571 255.29C215.4 256.06 219.397 252.482 224.355 252.238C224.355 233.23 224.445 179.129 216.361 167.586L192.443 159.531C192.328 161.506 180.837 174.845 181.119 191.109C181.439 209.437 179.056 226.727 178.646 232.46C178.582 233.435 177.455 246.8 177.403 247.838Z" fill="#3E2928"/>
<path id="Path_30" d="M218.565 145.73L216.361 167.534C216.361 167.534 198.516 168.253 190.829 162.943V144.447" fill="#FF8F6F"/>
<path id="Path_31" d="M241.252 131.378L239.433 133.866C240.403 131.842 241.259 129.765 241.995 127.645C242.508 126.196 240.189 125.619 239.677 127.068L239.408 127.812C239.63 127.042 239.839 126.269 240.035 125.49C240.195 124.849 239.805 124.2 239.164 124.041C238.524 123.882 237.876 124.272 237.717 124.913C237.214 126.926 236.611 128.912 235.91 130.865C236.302 129.131 236.584 127.375 236.756 125.606C236.91 124.08 234.514 124.144 234.373 125.606C234.174 127.619 233.814 129.614 233.297 131.57C233.297 130.886 233.233 130.202 233.105 129.518C233.069 129.173 232.887 128.86 232.605 128.658C232.541 128.389 232.464 128.133 232.375 127.863C232.187 127.309 231.629 126.97 231.052 127.058C230.474 127.147 230.044 127.638 230.03 128.222L229.876 137.201C229.443 138.132 228.877 138.996 228.198 139.766C229.351 140.564 230.463 141.42 231.529 142.331C232.48 143.136 233.387 143.992 234.245 144.896C235.014 143.939 235.752 142.964 236.461 141.972C236.549 141.897 236.627 141.811 236.692 141.715C238.827 138.552 241.03 135.439 243.302 132.378C244.25 131.326 242.162 130.159 241.252 131.378Z" fill="#FFB5A9"/>
<path id="Path_32" d="M207.24 125.85C207.24 125.85 215.669 128.12 219.09 133.545C221.232 137.3 223.119 141.195 224.739 145.204L230.965 135.52C230.965 135.52 238.524 137.842 241.522 141.562C241.522 141.562 232.554 161.185 224.739 162.866C216.925 164.546 208.623 151.348 208.623 151.348C208.623 151.348 206.907 156.863 207.24 150.976" fill="#FF8F6F"/>
<path id="Path_33" d="M212.595 146.82C210.144 144.824 208.295 142.187 207.253 139.201C206.241 135.751 207.509 132.724 208.687 129.518C209.963 126.339 210.708 122.972 210.891 119.552C210.993 116.191 210.609 112.831 210.378 109.483C210.346 109.34 210.346 109.191 210.378 109.047C209.251 105.264 206.945 102.057 202.397 101.672C190.624 100.672 189.958 113.729 190.048 119.039C190.137 124.349 190.701 127.94 186.794 130.159C182.886 132.378 180.068 138.201 183.796 142.908C187.524 147.615 184.18 145.897 181.695 150.078C179.21 154.259 179.85 159.48 184.949 161.365C190.048 163.25 213.748 159.71 215.926 157.517C216.698 156.633 217.098 155.484 217.04 154.311C216.509 151.359 214.93 148.699 212.595 146.82V146.82Z" fill="#007F68"/>
<path id="Shape_7" fill-rule="evenodd" clip-rule="evenodd" d="M227.506 48.8802C227.325 45.3837 226.171 42.0075 224.176 39.1324C222.4 36.2591 219.777 34.0092 216.669 32.6937C215.076 31.9826 213.277 31.8911 211.621 32.4372C210.041 32.9971 208.738 34.1457 207.983 35.6437C207.073 37.4293 206.666 39.4288 206.804 41.4283C206.915 43.8067 207.471 46.1431 208.444 48.3159C209.416 50.5909 210.758 52.6887 212.415 54.5237C213.814 56.1552 215.567 57.445 217.54 58.2946C218.234 58.572 218.962 58.7575 219.705 58.8461C220.27 58.922 220.843 58.922 221.409 58.8461C221.85 58.7848 222.281 58.664 222.69 58.4869C222.949 58.3846 223.202 58.2646 223.445 58.1278L223.702 57.9483L222.152 55.0624L221.639 55.3446C221.119 55.5853 220.546 55.6912 219.974 55.6524C219.095 55.6617 218.223 55.4915 217.412 55.1522C215.08 54.082 213.16 52.2811 211.941 50.0217C210.411 47.7343 209.526 45.0755 209.379 42.3261C209.133 40.1398 209.891 37.9598 211.442 36.4004C212.911 35.1008 215.023 34.8313 216.771 35.7206C219.124 36.6998 221.11 38.3961 222.446 40.5689C223.933 42.7045 224.79 45.2157 224.919 47.8156C225.013 50.4407 224.44 51.5096 223.202 51.0222C222.761 50.831 222.392 50.5027 222.152 50.0859C221.868 49.6544 221.708 49.1529 221.69 48.6365L221.434 41.4283L218.872 40.4278V41.5693L218.641 41.1589C218.378 40.7834 218.068 40.4429 217.719 40.1456C217.309 39.7737 216.836 39.4783 216.323 39.2735C215.286 38.7631 214.041 38.958 213.21 39.7609C212.265 40.8045 211.829 42.2129 212.018 43.6087C212.072 45.3326 212.585 47.0108 213.504 48.4698C214.267 49.8125 215.445 50.8704 216.861 51.4839C217.454 51.7529 218.116 51.8335 218.757 51.7148C219.14 51.6585 219.502 51.5038 219.807 51.2659C219.928 51.134 220.031 50.9875 220.115 50.8298L220.422 51.4326C220.718 51.951 221.089 52.4222 221.524 52.8306C222.008 53.3332 222.593 53.7267 223.24 53.985C224.301 54.5503 225.609 54.3232 226.418 53.4335C227.341 52.1074 227.73 50.4811 227.506 48.8802ZM219.051 46.3535C219.136 47.031 218.947 47.7142 218.526 48.2517C218.133 48.6423 217.533 48.7355 217.04 48.4826C216.354 48.1849 215.782 47.6717 215.413 47.0204C214.964 46.3036 214.712 45.4806 214.683 44.6348C214.594 43.9624 214.799 43.2843 215.247 42.775C215.678 42.3849 216.306 42.3031 216.822 42.5698C217.48 42.8561 218.025 43.3521 218.372 43.9806C218.797 44.7006 219.031 45.5175 219.051 46.3535Z" fill="#F47B56"/>
<path id="Shape_8" fill-rule="evenodd" clip-rule="evenodd" d="M378.764 187.761C378.586 184.264 377.432 180.887 375.433 178.013C373.721 175.108 371.152 172.805 368.08 171.421C366.482 170.715 364.68 170.623 363.019 171.164C361.44 171.732 360.138 172.884 359.381 174.383C358.471 176.164 358.063 178.16 358.202 180.155C358.312 182.534 358.869 184.87 359.842 187.043C360.813 189.322 362.155 191.424 363.814 193.263C365.214 194.89 366.966 196.176 368.938 197.021C369.628 197.303 370.351 197.492 371.09 197.586C371.66 197.661 372.237 197.661 372.807 197.586C373.246 197.517 373.676 197.397 374.088 197.227C374.348 197.124 374.6 197.004 374.844 196.868L375.1 196.688L373.55 193.802L373.037 194.084C372.515 194.32 371.944 194.426 371.372 194.392C370.492 194.392 369.622 194.217 368.81 193.879C366.482 192.861 364.542 191.121 363.275 188.915C361.743 186.629 360.857 183.97 360.713 181.22C360.441 179.029 361.182 176.833 362.725 175.256C364.198 173.964 366.308 173.7 368.054 174.589C370.4 175.568 372.38 177.259 373.716 179.424C375.202 181.565 376.059 184.08 376.189 186.684C376.266 189.313 375.74 190.378 374.459 189.89C374.018 189.699 373.65 189.371 373.409 188.954C373.13 188.52 372.97 188.02 372.948 187.505L372.691 180.296L370.129 179.309V180.45L369.886 180.04C369.622 179.661 369.312 179.316 368.963 179.014C368.554 178.641 368.081 178.346 367.567 178.141C366.534 177.633 365.294 177.828 364.467 178.629C363.516 179.669 363.079 181.08 363.275 182.477C363.329 184.207 363.847 185.89 364.774 187.351C365.535 188.698 366.713 189.761 368.131 190.378C368.72 190.647 369.379 190.723 370.014 190.596C370.398 190.542 370.76 190.387 371.064 190.147C371.182 190.013 371.285 189.867 371.372 189.711L371.679 190.313C371.978 190.83 372.349 191.301 372.781 191.711C373.268 192.211 373.852 192.604 374.498 192.866C375.559 193.426 376.864 193.2 377.675 192.314C378.598 190.988 378.987 189.362 378.764 187.761ZM370.321 185.234C370.402 185.914 370.208 186.597 369.783 187.133C369.387 187.519 368.788 187.607 368.297 187.351C367.61 187.048 367.039 186.531 366.67 185.876C366.221 185.163 365.969 184.345 365.94 183.503C365.851 182.828 366.061 182.148 366.517 181.643C366.951 181.257 367.578 181.181 368.092 181.451C368.748 181.736 369.289 182.233 369.63 182.861C370.061 183.58 370.299 184.397 370.321 185.234Z" fill="#F47B56"/>
<g id="Path_34" style="mix-blend-mode:multiply" opacity="0.25">
<path d="M120.139 232.704L76.7745 208.001L33.4227 232.755C33.4227 232.755 57.5454 247.838 79.1316 260.511C92.8392 250.814 105.022 239.72 120.139 232.704Z" fill="url(#paint4_linear_2_78)"/>
</g>
</g>
</g>
<defs>
<linearGradient id="paint0_linear_2_78" x1="246.715" y1="185.543" x2="235.685" y2="218.24" gradientUnits="userSpaceOnUse">
<stop stop-color="#78B46A"/>
<stop offset="0.03" stop-color="#7F3500"/>
<stop offset="1" stop-color="white"/>
</linearGradient>
<linearGradient id="paint1_linear_2_78" x1="174.536" y1="252.477" x2="155.981" y2="310.838" gradientUnits="userSpaceOnUse">
<stop stop-color="#78B46A"/>
<stop offset="0.03" stop-color="#7F3500"/>
<stop offset="1" stop-color="white"/>
</linearGradient>
<linearGradient id="paint2_linear_2_78" x1="128.7" y1="130.002" x2="111.536" y2="169.625" gradientUnits="userSpaceOnUse">
<stop stop-color="#78B46A"/>
<stop offset="0.03" stop-color="#7F3500"/>
<stop offset="1" stop-color="white"/>
</linearGradient>
<linearGradient id="paint3_linear_2_78" x1="369.656" y1="165.452" x2="362.951" y2="148.459" gradientUnits="userSpaceOnUse">
<stop stop-color="white" stop-opacity="0.01"/>
<stop offset="0.99" stop-color="#DC841E"/>
</linearGradient>
<linearGradient id="paint4_linear_2_78" x1="63.5551" y1="188.349" x2="44.0329" y2="246.801" gradientUnits="userSpaceOnUse">
<stop stop-color="#78B46A"/>
<stop offset="0.03" stop-color="#7F3500"/>
<stop offset="1" stop-color="white"/>
</linearGradient>
</defs>
</svg>
