<svg width="966" height="945" viewBox="0 0 966 945" fill="none" xmlns="http://www.w3.org/2000/svg">
<g id="Group 3">
<path id="Path Copy" opacity="0.0991676" d="M468.755 937.353L19.744 671.729C5.44895 663.683 -6.80395 650.501 7.12455 641.852L457.733 381.89C464.487 377.696 474.751 374.944 481.636 378.954L952.901 652.781C967.197 661.089 969.762 684.231 955.52 692.618L527.925 936.933C509.663 947.537 487.165 947.697 468.755 937.353Z" fill="#6862E6"/>
<path id="Path Copy 2" opacity="0.0991676" d="M468.755 561.353L19.744 295.729C5.44895 287.683 -6.80395 274.501 7.12455 265.852L457.733 5.88968C464.487 1.69632 474.751 -1.05557 481.636 2.95433L952.901 276.781C967.197 285.089 969.762 308.231 955.52 316.618L527.925 560.933C509.663 571.537 487.165 571.697 468.755 561.353Z" stroke="#1E1F36"/>
<path id="Path Copy 3" opacity="0.0991676" d="M468.755 636.353L19.744 370.729C5.44895 362.683 -6.80395 349.501 7.12455 340.852L457.733 80.8897C464.487 76.6963 474.751 73.9444 481.636 77.9543L952.901 351.781C967.197 360.089 969.762 383.231 955.52 391.618L527.925 635.933C509.663 646.537 487.165 646.697 468.755 636.353Z" stroke="#1E1F36"/>
</g>
</svg>
